<?xml version="1.0" encoding="UTF-8"?>
<!DOCTYPE svg PUBLIC "-//W3C//DTD SVG 1.1//EN" "http://www.w3.org/Graphics/SVG/1.1/DTD/svg11.dtd">
<svg xmlns="http://www.w3.org/2000/svg" version="1.1" width="512px" height="512px" style="shape-rendering:geometricPrecision; text-rendering:geometricPrecision; image-rendering:optimizeQuality; fill-rule:evenodd; clip-rule:evenodd" xmlns:xlink="http://www.w3.org/1999/xlink">
<g><path style="opacity:1" fill="#d4a87d" d="M 253.5,-0.5 C 254.833,-0.5 256.167,-0.5 257.5,-0.5C 340.167,42.1667 422.833,84.8333 505.5,127.5C 473.39,143.055 441.723,159.388 410.5,176.5C 410.631,175.624 410.298,174.957 409.5,174.5C 326.749,132.125 244.082,89.792 161.5,47.5C 192.167,31.5 222.833,15.5 253.5,-0.5 Z"/></g>
<g><path style="opacity:1" fill="#eccdb4" d="M 161.5,47.5 C 244.082,89.792 326.749,132.125 409.5,174.5C 410.298,174.957 410.631,175.624 410.5,176.5C 409.833,176.5 409.5,176.833 409.5,177.5C 389.217,186.975 369.217,196.975 349.5,207.5C 349.167,207.5 348.833,207.5 348.5,207.5C 348.167,207.5 347.833,207.5 347.5,207.5C 265.213,164.355 182.546,121.688 99.5,79.5C 119.845,68.3266 140.512,57.6599 161.5,47.5 Z"/></g>
<g><path style="opacity:1" fill="#d3a77c" d="M 99.5,79.5 C 182.546,121.688 265.213,164.355 347.5,207.5C 316.868,223.483 286.201,239.483 255.5,255.5C 172.453,212.309 89.1193,169.643 5.5,127.5C 36.5133,110.993 67.8466,94.9929 99.5,79.5 Z"/></g>
<g><path style="opacity:1" fill="#8f6a3e" d="M 5.5,127.5 C 89.1193,169.643 172.453,212.309 255.5,255.5C 255.5,340.833 255.5,426.167 255.5,511.5C 254.833,511.5 254.167,511.5 253.5,511.5C 171.296,468.813 88.7958,426.48 6,384.5C 5.5,298.834 5.33334,213.167 5.5,127.5 Z"/></g>
<g><path style="opacity:1" fill="#a27d4b" d="M 505.5,127.5 C 505.667,213.167 505.5,298.834 505,384.5C 422.204,426.48 339.704,468.813 257.5,511.5C 256.833,511.5 256.167,511.5 255.5,511.5C 255.5,426.167 255.5,340.833 255.5,255.5C 286.201,239.483 316.868,223.483 347.5,207.5C 347.833,207.5 348.167,207.5 348.5,207.5C 348.167,226.512 348.5,245.512 349.5,264.5C 350.107,264.376 350.44,264.043 350.5,263.5C 361.039,250.272 371.705,237.106 382.5,224C 391.594,226.308 400.594,229.141 409.5,232.5C 409.5,214.167 409.5,195.833 409.5,177.5C 409.5,176.833 409.833,176.5 410.5,176.5C 441.723,159.388 473.39,143.055 505.5,127.5 Z"/></g>
<g><path style="opacity:1" fill="#d3b4a1" d="M 409.5,177.5 C 409.5,195.833 409.5,214.167 409.5,232.5C 400.594,229.141 391.594,226.308 382.5,224C 371.705,237.106 361.039,250.272 350.5,263.5C 349.503,245.007 349.17,226.341 349.5,207.5C 369.217,196.975 389.217,186.975 409.5,177.5 Z"/></g>
<g><path style="opacity:1" fill="#c09b7c" d="M 348.5,207.5 C 348.833,207.5 349.167,207.5 349.5,207.5C 349.17,226.341 349.503,245.007 350.5,263.5C 350.44,264.043 350.107,264.376 349.5,264.5C 348.5,245.512 348.167,226.512 348.5,207.5 Z"/></g>
</svg>
